<?xml version="1.0" encoding="utf-8"?>
<!-- Generator: Adobe Illustrator 27.8.1, SVG Export Plug-In . SVG Version: 6.00 Build 0)  -->
<svg version="1.1" id="Layer_1" xmlns="http://www.w3.org/2000/svg" xmlns:xlink="http://www.w3.org/1999/xlink" x="0px" y="0px"
	 viewBox="0 0 185 185" style="enable-background:new 0 0 185 185;" xml:space="preserve">
<style type="text/css">
	.st0{fill:#C65300;stroke:#FFFFFF;stroke-width:3.96;stroke-miterlimit:10;}
	.st1{fill:none;stroke:#FFFFFF;stroke-width:2.6941;stroke-miterlimit:10;}
	.st2{fill:none;stroke:#D6622F;stroke-width:3.8808;stroke-miterlimit:10;}
	.st3{fill:#EB8133;}
	.st4{opacity:0.2;}
	.st5{fill:#FFFFFF;}
</style>
<path class="st0" d="M105.7,182.2c-0.2,0.1-0.4,0.1-0.6,0.2c-2,0.3-4.1-0.8-6-1.9c-1.7-0.9-3.4-1.8-4.9-1.8c-0.4,0-0.7,0.1-1.2,0.2
	c-1.3,0.3-2.5,1.1-3.8,1.8c-1.3,0.7-2.6,1.5-4,1.9c-0.7,0.2-1.4,0.3-1.9,0.2c-2-0.2-3.8-1.8-5.4-3.3c-1.5-1.4-2.8-2.6-4.4-2.9
	c-1.2-0.3-2.7,0-4,0.3c-0.4,0.1-0.8,0.2-1.2,0.3c-0.4,0.1-0.8,0.2-1.3,0.3c-1.7,0.5-3.5,0.8-5.1,0.2c-2-0.7-3.2-2.7-4.5-4.4
	c-1-1.6-2.2-3.1-3.5-3.9c-1.3-0.7-3.3-0.7-5.2-0.6c-2.3,0.1-4.5,0.2-6.2-1.1c-1.6-1.1-2.5-3.4-3.3-5.3c-0.7-1.8-1.4-3.7-2.5-4.5
	c-1.2-1-3.1-1.5-4.9-1.8c-2.2-0.5-4.5-1-5.8-2.5c-1.3-1.5-1.6-3.8-1.9-6c-0.2-1.9-0.5-3.9-1.3-5c-0.8-1.1-2.5-2.1-4.3-2.9
	c-2-1-4.2-2-5.1-3.7c-1-1.8-0.7-4.1-0.4-6.2c0.2-1.9,0.4-3.8-0.1-5.2c-0.6-1.4-1.9-2.6-3.5-3.8c-1.7-1.5-3.6-3-4.1-4.9
	c-0.5-2,0.3-4.2,1.1-6.3c0.9-2.1,1.6-3.8,1.3-5.3c-0.2-1.6-1.4-3.2-2.5-4.6c-1.3-1.8-2.7-3.7-2.7-5.6c0-2.1,1.3-4.1,2.6-5.9
	c1.1-1.6,2.2-3.2,2.3-4.6c0.1-1.6-0.6-3.4-1.3-5c-0.9-2.1-1.8-4.3-1.3-6.2c0.4-2,2.2-3.6,3.7-5c1.4-1.3,2.9-2.5,3.4-4
	c0.5-1.5,0.2-3.4,0-5.3c-0.4-2.3-0.7-4.6,0.2-6.3c0.9-1.7,2.9-3,4.8-4c1.6-0.8,3.3-1.8,4.3-3.1c0.8-1.2,1-3.3,1.1-5.2
	c0.2-2.2,0.3-4.6,1.7-6c1.1-1.3,2.8-1.9,4.5-2.3c0.4-0.1,0.8-0.2,1.3-0.3c0.4-0.1,0.8-0.2,1.2-0.3c1.4-0.4,2.8-0.8,3.7-1.7
	c1.1-1,1.7-2.8,2.3-4.6c0.7-2.1,1.4-4.4,3.1-5.6c0.5-0.3,1.1-0.6,1.8-0.8c1.4-0.4,2.9-0.4,4.4-0.3c1.5-0.1,3-0.1,4.2-0.4
	c0.4-0.1,0.8-0.2,1.1-0.4c1.3-0.8,2.3-2.3,3.4-4C56,10.8,57.2,8.8,59,8c0.2-0.1,0.4-0.1,0.6-0.2c1.7-0.5,3.7,0,5.6,0.6
	c1.9,0.4,3.8,1,5.2,0.6c1.5-0.4,2.9-1.8,4.3-3.1c1.5-1.4,3-2.9,4.6-3.3c0.2-0.1,0.4-0.1,0.6-0.2c2-0.3,4.1,0.8,6,1.9
	c1.7,0.9,3.4,1.8,4.9,1.8c0.4,0,0.7-0.1,1.2-0.2c1.3-0.3,2.5-1.1,3.8-1.8s2.6-1.5,4-1.9c0.7-0.2,1.4-0.3,1.9-0.2
	c2,0.2,3.8,1.8,5.4,3.3c1.5,1.4,2.8,2.6,4.4,2.9c1.2,0.3,2.7,0,4-0.3c0.4-0.1,0.8-0.2,1.2-0.3c0.4-0.1,0.8-0.2,1.2-0.3
	c1.7-0.5,3.5-0.8,5.1-0.2c2,0.7,3.2,2.7,4.5,4.4c1,1.6,2.2,3.1,3.5,3.9c1.4,0.7,3.3,0.7,5.2,0.6c2.3-0.1,4.5-0.2,6.2,1.1
	c1.6,1.1,2.5,3.4,3.3,5.3c0.7,1.8,1.4,3.7,2.6,4.6c1.2,1,3.1,1.5,4.9,1.8c2.2,0.5,4.5,1,5.7,2.5s1.6,3.8,1.9,6
	c0.2,1.9,0.5,3.9,1.3,5c0.8,1.2,2.5,2.1,4.3,2.9c2,1,4.2,2,5.1,3.8c1,1.8,0.7,4.1,0.4,6.2c-0.2,1.9-0.4,3.8,0,5.3
	c0.6,1.4,2,2.6,3.5,3.8c1.7,1.5,3.6,3,4.1,4.9c0.5,2-0.3,4.2-1.1,6.3c-0.7,1.8-1.3,3.6-1.1,5.1c0.2,1.6,1.4,3.2,2.6,4.6
	c1.3,1.8,2.7,3.7,2.7,5.6c0,2.1-1.3,4.1-2.6,5.9c-1.1,1.6-2.2,3.2-2.3,4.6c-0.1,1.6,0.6,3.4,1.3,5c0.9,2.1,1.8,4.3,1.3,6.2
	c-0.4,2-2.2,3.6-3.7,5c-1.4,1.2-2.9,2.5-3.4,4c-0.5,1.5-0.2,3.4,0,5.2c0.4,2.3,0.7,4.6-0.2,6.3c-0.9,1.7-2.9,3-4.8,4
	c-1.6,0.8-3.3,1.8-4.3,3.1c-0.8,1.2-1,3.3-1.1,5.2c-0.2,2.2-0.3,4.6-1.7,6c-1.1,1.3-2.8,1.9-4.6,2.3c-0.4,0.1-0.8,0.2-1.3,0.3
	c-0.4,0.1-0.8,0.2-1.2,0.3c-1.4,0.4-2.8,0.8-3.7,1.7c-1.2,1-1.7,2.8-2.4,4.7c-0.7,2.1-1.4,4.4-3.1,5.6c-0.5,0.3-1.1,0.6-1.8,0.8
	c-1.4,0.4-2.9,0.4-4.4,0.3c-1.5,0-2.9-0.1-4.2,0.3c-0.4,0.1-0.8,0.2-1.1,0.4c-1.3,0.8-2.3,2.3-3.4,4c-1.3,1.9-2.5,3.9-4.3,4.6
	c-0.2,0.1-0.4,0.1-0.6,0.2c-1.7,0.5-3.7,0-5.6-0.6c-1.9-0.4-3.8-1-5.3-0.6c-1.5,0.4-2.9,1.8-4.3,3.1
	C108.9,180.3,107.4,181.7,105.7,182.2z"/>
<path class="st1" d="M80.2,46.1"/>
<circle class="st2" cx="92.5" cy="92.5" r="74.2"/>
<path class="st3" d="M82.6,30.7l-4.3,1.1c-0.2,0.1-0.3,0-0.4-0.2l-2.3-3.7c-0.2-0.3-0.7-0.1-0.7,0.2l-0.2,4.4
	c0.1,0.2-0.1,0.3-0.2,0.4l-4.3,1.1c-0.4,0.1-0.4,0.6,0,0.7l4,1.6c0.1,0.1,0.3,0.2,0.2,0.4l-0.3,4.3c0,0.3,0.4,0.5,0.7,0.2l2.7-3.4
	c0.1-0.1,0.3-0.2,0.4-0.1l4,1.6c0.3,0.1,0.7-0.3,0.5-0.5L80.1,35c-0.1-0.2-0.1-0.3,0-0.4l2.8-3.4C83.2,30.9,82.9,30.6,82.6,30.7z"/>
<path class="st3" d="M113.1,146l-4.3,1.1c-0.2,0.1-0.3,0-0.4-0.2l-2.3-3.7c-0.2-0.3-0.7-0.1-0.7,0.2l-0.2,4.4
	c0.1,0.2-0.1,0.3-0.2,0.4l-4.3,1.1c-0.4,0.1-0.4,0.6,0,0.7l4,1.6c0.1,0.1,0.3,0.2,0.2,0.4l-0.3,4.4c0,0.3,0.4,0.5,0.7,0.2l2.7-3.4
	c0.1-0.1,0.3-0.2,0.4-0.1l4,1.6c0.3,0.1,0.7-0.3,0.5-0.5l-2.4-3.7c-0.1-0.2-0.1-0.3,0-0.4l2.8-3.4
	C113.7,146.3,113.4,145.9,113.1,146z"/>
<g class="st4">
	<path class="st1" d="M80.2,46.1"/>
</g>
<g>
	<path class="st5" d="M49.8,115.7c0.4,1.4,0.3,2.4-0.2,3.3c-0.5,0.9-1.4,1.5-2.6,1.8c-1.3,0.3-2.4,0.4-3.3,0l-0.7-2.6
		c1.2,0.4,2.3,0.5,3.2,0.3c0.5-0.1,0.8-0.3,1.1-0.7c0.2-0.4,0.2-0.8,0.1-1.3c-0.1-0.5-0.4-0.8-0.8-1.1s-1-0.7-1.9-0.8
		c-0.7-0.2-1.3-0.5-1.7-0.8s-0.8-0.6-1.1-1.1c-0.3-0.4-0.6-1-0.7-1.6c-0.3-1.3-0.3-2.2,0.2-3.2s1.3-1.5,2.4-1.8
		c1.1-0.3,2.2-0.3,3.3,0.1l-0.3,2.4c-0.3-0.1-0.8-0.2-1.1-0.2c-0.3,0-0.7,0-1.1,0.1c-0.4,0.1-0.7,0.3-0.9,0.6
		c-0.1,0.3-0.2,0.8-0.1,1.3c0.1,0.5,0.3,0.8,0.7,1.2c0.4,0.3,1,0.6,1.8,0.8c1.1,0.3,1.9,0.8,2.4,1.4
		C49.2,114.2,49.6,114.8,49.8,115.7z"/>
	<path class="st5" d="M59.3,117.2l-1.7-3.4l-3.7,1l0.2,3.8l-2.6,0.7l-0.3-15l3.6-0.9l7.2,13.2L59.3,117.2z M56.4,111.7l-1.6-3.1
		c-0.1-0.2-0.4-0.6-0.7-1.5c-0.4-0.7-0.6-1.3-0.7-1.6c0.1,0.6,0.1,1.2,0.2,1.9c0.1,0.7,0.1,2.4,0.2,4.8L56.4,111.7L56.4,111.7z"/>
	<path class="st5" d="M67,115.2l-2.6,0.7l-3.1-11.6l-2.7,0.7l-0.6-2.3l7.9-2.1l0.6,2.3l-2.6,0.7L67,115.2z"/>
	<path class="st5" d="M71.9,113.9l-3.7-13.9l2.5-0.7l3.7,14L71.9,113.9L71.9,113.9z"/>
	<path class="st5" d="M82.8,106.9c0.4,1.4,0.3,2.4-0.2,3.3c-0.5,0.9-1.4,1.5-2.6,1.8c-1.3,0.3-2.4,0.4-3.3,0l-0.7-2.6
		c1.2,0.4,2.3,0.5,3.2,0.3c0.5-0.1,0.8-0.3,1.1-0.7c0.2-0.4,0.2-0.8,0.1-1.3s-0.4-0.8-0.8-1.1s-1-0.7-1.9-0.8
		c-0.7-0.2-1.3-0.5-1.7-0.8c-0.4-0.3-0.8-0.6-1.1-1.1c-0.3-0.4-0.6-1-0.7-1.6c-0.3-1.3-0.3-2.2,0.2-3.2s1.3-1.5,2.4-1.8
		c1.1-0.3,2.2-0.3,3.3,0.1l-0.3,2.4c-0.3-0.1-0.8-0.2-1.1-0.2c-0.3,0-0.7,0-1.1,0.1c-0.4,0.1-0.7,0.3-0.9,0.6
		c-0.1,0.3-0.2,0.8-0.1,1.3s0.3,0.8,0.7,1.2s1,0.6,1.8,0.8c1.1,0.3,1.9,0.8,2.4,1.4C82.2,105.4,82.6,106.1,82.8,106.9z"/>
	<path class="st5" d="M88.3,109.5l-2.6,0.7L82,96.3l6.3-1.7l0.6,2.2l-3.8,1l1,4l3.5-0.9l0.6,2.3l-3.5,0.9L88.3,109.5L88.3,109.5z"/>
	<path class="st5" d="M100.3,106.3l-1.7-3.4l-3.7,1l0.2,3.8l-2.6,0.7l-0.2-14.9l3.6-0.9l7.2,13.2L100.3,106.3L100.3,106.3z
		 M97.4,100.9l-1.6-3.1c-0.1-0.2-0.4-0.6-0.7-1.5c-0.4-0.7-0.6-1.3-0.7-1.6c0.1,0.6,0.1,1.2,0.2,1.9c0.1,0.7,0.1,2.4,0.2,4.8
		L97.4,100.9L97.4,100.9z"/>
	<path class="st5" d="M105.9,92.2c-0.8,0.2-1.2,0.8-1.4,1.8c-0.3,1-0.1,2.3,0.3,3.9c0.9,3.3,2.1,4.6,3.9,4.1
		c0.8-0.2,1.5-0.6,2.1-1.3l0.6,2.3c-0.5,0.7-1.4,1.1-2.4,1.4c-1.5,0.4-3,0.1-4.2-1s-2.1-2.8-2.6-4.9c-0.6-2.3-0.6-4.2,0-5.6
		c0.5-1.5,1.6-2.5,3.2-2.9c0.5-0.1,1-0.2,1.5-0.2c0.5,0,1.1,0.1,1.8,0.4l-0.3,2.4c-0.3-0.1-0.7-0.2-1.1-0.3
		C106.7,92.1,106.3,92.1,105.9,92.2z"/>
	<path class="st5" d="M117.9,101.7l-2.6,0.7l-3.1-11.6l-2.7,0.7l-0.6-2.3l7.9-2.1l0.6,2.3l-2.7,0.7L117.9,101.7L117.9,101.7z"/>
	<path class="st5" d="M122.6,100.4L119,86.5l2.5-0.7l3.7,14L122.6,100.4L122.6,100.4z"/>
	<path class="st5" d="M136.2,89.4c0.6,2.3,0.6,4.3,0.1,5.7c-0.5,1.5-1.6,2.5-3.3,2.9c-1.6,0.4-3.1,0.2-4.3-0.8c-1.2-1-2.2-2.7-2.8-5
		c-0.6-2.2-0.6-4.3-0.1-5.7c0.5-1.5,1.6-2.4,3.3-2.8c1.6-0.4,3.1-0.2,4.3,0.8C134.6,85.6,135.6,87.1,136.2,89.4z M128.6,91.4
		c0.4,1.6,0.9,2.8,1.6,3.5c0.6,0.8,1.3,1,2.2,0.8c1.5-0.4,2-2.3,1.1-5.5c-0.8-3.2-2.1-4.6-3.6-4.2c-0.8,0.2-1.3,0.7-1.5,1.7
		C128.1,88.5,128.2,89.8,128.6,91.4z"/>
	<path class="st5" d="M149.9,93.2l-3.2,0.8l-7-9l0,0c0.4,0.7,0.6,1.6,0.9,2.5l2,7.6l-2.4,0.6l-3.7-13.9l3.2-0.8l7,8.9l0.1,0
		c-0.3-0.7-0.6-1.4-0.8-2.4l-2-7.6l2.4-0.6L149.9,93.2L149.9,93.2z"/>
	<path class="st5" d="M63.7,131.2l4-1l1.8,6.7c-1,0.8-2.1,1.4-3.4,1.7c-1.5,0.4-2.9,0.1-3.9-0.8c-1.2-0.9-2-2.5-2.6-4.6
		s-0.5-3.9,0.2-5.2c0.7-1.4,1.8-2.3,3.5-2.8c1.1-0.3,2.1-0.2,3.2,0l-0.2,2.2c-0.9-0.2-1.6-0.3-2.3-0.1c-1,0.3-1.5,0.8-1.9,1.8
		c-0.3,1-0.3,2.1,0.1,3.6c0.4,1.5,0.9,2.6,1.5,3.2c0.6,0.7,1.3,0.9,2,0.7c0.4-0.1,0.7-0.3,1.1-0.5l-0.8-3l-1.6,0.4
		C64.3,133.5,63.7,131.2,63.7,131.2z"/>
	<path class="st5" d="M76.2,121.8l2.2,8.4c0.4,1.5,0.3,2.8-0.1,3.9c-0.4,1-1.4,1.7-2.8,2.1c-1.3,0.3-2.4,0.2-3.3-0.5
		c-0.9-0.6-1.6-1.7-2-3.3l-2.2-8.3l2.4-0.6l2.3,8.5c0.4,1.6,1.2,2.4,2.3,2.1c0.5-0.1,0.8-0.4,1-1c0.2-0.5,0.1-1.2-0.1-1.9l-2.3-8.6
		L76.2,121.8L76.2,121.8z"/>
	<path class="st5" d="M88.2,132.5l-1.6-3.1l-3.4,0.9l0.1,3.5l-2.4,0.6l-0.2-13.9l3.3-0.9l6.7,12.2L88.2,132.5z M85.6,127.4l-1.5-2.9
		c-0.1-0.2-0.3-0.7-0.6-1.3c-0.4-0.7-0.5-1.2-0.7-1.4c0,0.5,0.1,1.1,0.2,1.8c0.1,0.6,0.2,2.1,0.2,4.5L85.6,127.4
		C85.6,127.5,85.6,127.4,85.6,127.4z"/>
	<path class="st5" d="M93.1,125.8l1.3,5l-2.4,0.6l-3.5-13.1l3.2-0.8c1.4-0.4,2.4-0.3,3.3,0.2c0.9,0.5,1.4,1.4,1.7,2.6
		c0.4,1.6,0.2,3-0.7,3.9l4,4.9l-2.6,0.7l-3.4-4.5L93.1,125.8C93,125.7,93.1,125.8,93.1,125.8z M92.5,123.7l0.6-0.2
		c0.6-0.2,0.9-0.4,1.1-0.8c0.2-0.4,0.2-0.9,0-1.6c-0.2-0.7-0.4-1.1-0.8-1.3c-0.4-0.2-0.8-0.2-1.4-0.1l-0.6,0.2L92.5,123.7z"/>
	<path class="st5" d="M107.3,127.4l-1.6-3.1l-3.4,0.9l0.1,3.5l-2.4,0.6l-0.2-13.9l3.3-0.9l6.7,12.2L107.3,127.4z M104.8,122.3
		l-1.5-2.9c-0.1-0.2-0.3-0.7-0.6-1.3c-0.4-0.7-0.5-1.2-0.7-1.4c0,0.5,0.1,1.1,0.2,1.8c0.1,0.6,0.2,2.1,0.2,4.5L104.8,122.3
		C104.8,122.4,104.8,122.3,104.8,122.3z"/>
	<path class="st5" d="M120.2,124l-3,0.8l-6.5-8.3l-0.1,0c0.4,0.6,0.6,1.5,0.8,2.3l1.9,7.1l-2.2,0.6l-3.5-13.1l3-0.8l6.5,8.2l0.1,0
		c-0.3-0.6-0.6-1.3-0.8-2.2l-1.9-7.1l2.2-0.6L120.2,124z"/>
	<path class="st5" d="M126.7,122.3l-2.4,0.6l-2.9-10.8l-2.5,0.7l-0.6-2.1l7.3-1.9l0.6,2.1l-2.5,0.7L126.7,122.3L126.7,122.3z"/>
	<path class="st5" d="M136.5,119.7l-5.8,1.5l-3.5-13.1l5.8-1.5l0.6,2.1l-3.5,0.9l0.8,3.1l3.2-0.8l0.6,2.1l-3.2,0.8l1,3.7l3.5-0.9
		L136.5,119.7z"/>
	<path class="st5" d="M144.6,117.6l-5.8,1.5l-3.5-13.1l5.8-1.5l0.6,2.1l-3.5,0.9l0.8,3.1l3.2-0.8l0.6,2.1l-3.2,0.8l1,3.7l3.5-0.9
		L144.6,117.6z"/>
</g>
<g>
	<path class="st5" d="M54,94.1l-16.5,4.4L36.1,93l5.2-1.4l-3.7-14.1l-5.2,1.4l-1.4-5.4l11.7-3.1l5.2,19.5l4.8-1.3L54,94.1L54,94.1z"
		/>
	<path class="st5" d="M77.8,74.7c1.2,4.4,0.8,7.8-0.9,10.5s-4.5,4.5-8.3,5.5c-3.8,1-7,0.7-9.7-0.7c-2.8-1.4-4.6-4.3-5.8-8.7
		c-1-4-0.8-7.4,0.6-10.5c1.5-3.1,4.1-5.1,8.2-6.2c4.3-1.1,7.7-0.7,10.4,1.3C75,67.9,76.8,70.9,77.8,74.7z M70.8,76.2
		c-0.8-3-1.8-4.7-3.1-5.4s-2.7-0.8-4.3-0.4c-1.7,0.5-3,1.3-3.6,2.6c-0.7,1.3-0.6,3.4,0.2,6.1c0.8,2.9,1.8,4.7,3,5.4
		c1.2,0.8,2.6,1,4.4,0.5c1.5-0.4,2.8-1.3,3.6-2.5C71.6,81.5,71.6,79.3,70.8,76.2z"/>
	<path class="st5" d="M105.4,67.4c1.2,4.4,0.8,7.8-0.9,10.5c-1.8,2.6-4.5,4.5-8.3,5.5c-3.8,1-7,0.7-9.7-0.7
		c-2.8-1.4-4.6-4.3-5.8-8.7c-1-4-0.8-7.4,0.6-10.5c1.5-3.1,4.1-5.1,8.2-6.2c4.3-1.1,7.7-0.7,10.4,1.3
		C102.6,60.6,104.4,63.6,105.4,67.4z M98.5,68.9c-0.8-3-1.8-4.7-3.1-5.4c-1.3-0.7-2.7-0.8-4.3-0.4c-1.7,0.5-3,1.3-3.6,2.6
		c-0.7,1.3-0.6,3.4,0.2,6.1c0.8,2.9,1.8,4.7,3,5.4c1.2,0.7,2.6,1,4.4,0.5c1.5-0.4,2.8-1.3,3.6-2.5C99.2,74.1,99.3,72,98.5,68.9z"/>
	<path class="st5" d="M116,65.4c-2.4,0.6-4.5,0.5-6-0.6c-1.7-1-2.7-2.5-3.2-4.3c-0.5-2-0.3-3.9,0.7-5.5s2.7-2.9,5.1-3.5
		c2.3-0.6,4.5-0.5,6,0.6c1.6,1,2.7,2.5,3.2,4.3c0.5,2,0.3,3.9-0.7,5.5C120.1,63.5,118.5,64.7,116,65.4z M134,46.1l-6.7,15.2l-6.1,15
		l-6.4,1.7l7.6-16.7l5.1-13.5C127.6,47.8,134,46.1,134,46.1z M114.9,61.3c0.7-0.2,1.3-0.6,1.7-1.2s0.4-1.5,0.1-2.6
		c-0.3-1.2-0.7-1.9-1.4-2.2c-0.6-0.4-1.2-0.4-2-0.2c-0.8,0.2-1.3,0.6-1.7,1.2c-0.5,0.6-0.4,1.5-0.1,2.6c0.3,1.2,0.8,1.9,1.4,2.2
		S114.2,61.5,114.9,61.3z M136.8,72.7c-2.5,0.7-4.5,0.5-6.1-0.5s-2.7-2.5-3.2-4.3c-0.5-2-0.3-3.9,0.7-5.5c1-1.7,2.7-2.9,5.2-3.5
		c2.4-0.6,4.5-0.5,6,0.6c1.5,1,2.6,2.5,3.1,4.3c0.5,2,0.3,3.9-0.6,5.4C141.1,70.8,139.3,72,136.8,72.7z M135.8,68.7
		c0.8-0.2,1.3-0.6,1.7-1.2c0.4-0.6,0.4-1.5,0.1-2.6c-0.3-1.2-0.7-1.9-1.4-2.2c-0.6-0.4-1.2-0.4-2-0.2c-0.8,0.2-1.3,0.6-1.8,1.2
		c-0.4,0.6-0.4,1.5-0.1,2.6c0.3,1.2,0.8,1.9,1.4,2.2C134.5,68.9,135.1,68.9,135.8,68.7z"/>
</g>
</svg>
