<?xml version="1.0" encoding="utf-8"?>
<!-- Generator: Adobe Illustrator 24.0.3, SVG Export Plug-In . SVG Version: 6.00 Build 0)  -->
<svg version="1.1" id="Layer_1" xmlns="http://www.w3.org/2000/svg" xmlns:xlink="http://www.w3.org/1999/xlink" x="0px" y="0px"
	 width="92.7px" height="68px" viewBox="0 0 92.7 68" style="enable-background:new 0 0 92.7 68;" xml:space="preserve">
<style type="text/css">
	.st0{fill:#6D6E71;}
	.st1{fill:none;stroke:#6D6E71;stroke-width:2;stroke-linecap:round;stroke-linejoin:round;stroke-miterlimit:10;}
</style>
<path class="st0" d="M72.4,45.8c2.4,0,4.2,0.6,5.6,1.8c1.4,1.2,2,2.8,2,4.8c0,2.3-0.7,4.2-2.2,5.5c-1.5,1.3-3.5,2-6.2,2
	c-2.5,0-4.5-0.4-5.8-1.2v-2.5c0.7,0.5,1.6,0.8,2.7,1.1c1.1,0.3,2.1,0.4,3.2,0.4c1.8,0,3.2-0.4,4.2-1.3c1-0.9,1.5-2.1,1.5-3.7
	c0-3.2-1.9-4.7-5.8-4.7c-1,0-2.3,0.2-3.9,0.4l-1.3-0.8L67.2,37h11.2v2.4h-9l-0.6,6.8C70,45.9,71.2,45.8,72.4,45.8L72.4,45.8z"/>
<rect x="35" y="19.3" class="st1" width="11.9" height="47.6"/>
<path class="st1" d="M72.7,2.8C72.6,2,71.9,1.4,71,1.5c-11.6,1.3-22,6.1-30.1,13.3v4.5h5.9v0c7.5-5.5,16.5-9.2,26.3-10.3
	C73,6.3,72.8,4.2,72.7,2.8z"/>
<path class="st1" d="M2.3,8.6c12.3,0,23.6,4,32.7,10.7v47.6c-9.1-6.7-20.4-10.7-32.7-10.7V8.6z"/>
<path class="st1" d="M35,19.3h5.9v-4.5c-8.1-7.1-18.5-12-30.1-13.3C10,1.4,9.3,2,9.2,2.8C9.1,4.2,8.9,6.3,8.6,9
	C18.5,10.1,27.5,13.8,35,19.3L35,19.3z"/>
<path class="st1" d="M54.1,48.2c0-10.3,8.4-18.7,18.7-18.7c2.4,0,4.7,0.5,6.8,1.3V8.6c-12.3,0-23.6,4-32.7,10.7v47.6
	c3.6-2.6,7.5-4.8,11.7-6.6C55.8,57,54.1,52.8,54.1,48.2z"/>
<path class="st1" d="M91.5,48.2c0,10.3-8.4,18.7-18.7,18.7c-10.3,0-18.7-8.4-18.7-18.7c0-10.3,8.4-18.7,18.7-18.7
	C83.1,29.5,91.5,37.9,91.5,48.2z"/>
</svg>
