<?xml version="1.0" encoding="utf-8"?>
<!-- Generator: Adobe Illustrator 27.2.0, SVG Export Plug-In . SVG Version: 6.00 Build 0)  -->
<svg version="1.1" id="Layer_1" xmlns="http://www.w3.org/2000/svg" xmlns:xlink="http://www.w3.org/1999/xlink" x="0px" y="0px"
	 viewBox="0 0 100 68" style="enable-background:new 0 0 100 68;" xml:space="preserve">
<style type="text/css">
	.st0{fill:none;stroke:#6D6E71;stroke-width:2.5;stroke-linecap:round;stroke-linejoin:round;stroke-miterlimit:10;}
</style>
<g>
	<path class="st0" d="M26.7,61.7V40.1c0,0,0.6-7.8,6.5-8h10l5.7,9.2l5.8-9.2h9.9c0,0,6.3,0,6.5,7.4v22.2"/>
	<path class="st0" d="M3.4,54.1V40.7c0,0-0.4-6,5.4-6h6.7l4.8,7.4"/>
	<circle class="st0" cx="20.1" cy="21.7" r="6.6"/>
	<path class="st0" d="M94.6,54V40.7c0,0,0-6-5.6-6h-6.7l-4.8,7.4"/>
	<circle class="st0" cx="77.7" cy="21.7" r="6.6"/>
	<circle class="st0" cx="48.9" cy="14.8" r="8.5"/>
	<line class="st0" x1="36.5" y1="61.6" x2="36.5" y2="45.3"/>
	<line class="st0" x1="61.4" y1="61.7" x2="61.4" y2="45.3"/>
</g>
</svg>
