<svg id="Group_1104" data-name="Group 1104" xmlns="http://www.w3.org/2000/svg" xmlns:xlink="http://www.w3.org/1999/xlink" width="165.674" height="125.124" viewBox="0 0 165.674 125.124">
  <defs>
    <clipPath id="clip-path">
      <rect id="Rectangle_720" data-name="Rectangle 720" width="165.674" height="125.124" transform="translate(0 0)" fill="none"/>
    </clipPath>
  </defs>
  <g id="Group_1103" data-name="Group 1103" clip-path="url(#clip-path)">
    <path id="Path_1923" data-name="Path 1923" d="M147.339,123.71h-129a5.572,5.572,0,0,1-5.555-5.555V33.09a5.571,5.571,0,0,1,5.555-5.554h129a5.571,5.571,0,0,1,5.555,5.554v85.065a5.572,5.572,0,0,1-5.555,5.555" fill="#f27920"/>
    <rect id="Rectangle_718" data-name="Rectangle 718" width="140.113" height="96.174" rx="5.555" transform="translate(12.781 27.536)" fill="none" stroke="#4d4d4f" stroke-linecap="round" stroke-linejoin="round" stroke-width="2.825"/>
    <path id="Path_1924" data-name="Path 1924" d="M76.67,123.71H18.335a5.571,5.571,0,0,1-5.554-5.555V33.09a5.57,5.57,0,0,1,5.554-5.554H76.67a5.571,5.571,0,0,1,5.555,5.554v85.065a5.572,5.572,0,0,1-5.555,5.555" fill="#f27920"/>
    <path id="Rectangle_719" data-name="Rectangle 719" d="M5.555,0H63.89a5.554,5.554,0,0,1,5.554,5.554V90.62a5.554,5.554,0,0,1-5.554,5.554H5.554A5.554,5.554,0,0,1,0,90.62V5.555A5.555,5.555,0,0,1,5.555,0Z" transform="translate(12.781 27.536)" fill="none" stroke="#4d4d4f" stroke-linecap="round" stroke-linejoin="round" stroke-width="2.827"/>
    <path id="Path_1925" data-name="Path 1925" d="M82.225,113.066l.447-89.558s1.01-10.824-35.947-7.12c0,0-18.306,3.054-26.224,2.749,0,0,5.078,82.542.217,94.631Z" fill="#fff4da"/>
    <path id="Path_1926" data-name="Path 1926" d="M82.225,113.066l.447-89.558s1.01-10.824-35.947-7.12c0,0-18.306,3.054-26.224,2.749,0,0,5.078,82.542.217,94.631Z" fill="none" stroke="#4d4d4f" stroke-linecap="round" stroke-linejoin="round" stroke-width="2.893"/>
    <path id="Path_1927" data-name="Path 1927" d="M82.672,23.508s-.931-11.784,40.592-5.823V98.211s12.978-1.914,12.978,6.622c0,0,.395,7.566-12.978,8.233H82.225Z" fill="#fff4da"/>
    <path id="Path_1928" data-name="Path 1928" d="M82.672,23.508s-.931-11.784,40.592-5.823V98.211s12.978-1.914,12.978,6.622c0,0,.395,7.566-12.978,8.233H82.225Z" fill="none" stroke="#4d4d4f" stroke-linecap="round" stroke-linejoin="round" stroke-width="2.893"/>
    <path id="Path_1929" data-name="Path 1929" d="M129.193,112.13l10.9.616s4.289.32,4.287-7.667L144.1,25.457s1.047-9.7-8.474-5.663V101.45s3.743,7.523-6.434,10.68" fill="#b0b2b5"/>
    <path id="Path_1930" data-name="Path 1930" d="M129.193,112.13l10.9.616s4.289.32,4.287-7.667L144.1,25.457s1.047-9.7-8.474-5.663V101.45S139.37,108.973,129.193,112.13Z" fill="none" stroke="#4d4d4f" stroke-linecap="round" stroke-linejoin="round" stroke-width="2.893"/>
    <path id="Path_1931" data-name="Path 1931" d="M36.129,90.743s20.164-.706,34.946.449" fill="#fff4da"/>
    <path id="Path_1932" data-name="Path 1932" d="M36.129,90.743s20.164-.706,34.946.449" fill="none" stroke="#4d4d4f" stroke-linecap="round" stroke-linejoin="round" stroke-width="2.893"/>
    <path id="Path_1933" data-name="Path 1933" d="M35.4,77.488s22.615-1.865,36.022,0" fill="#fff4da"/>
    <path id="Path_1934" data-name="Path 1934" d="M35.4,77.488s22.615-1.865,36.022,0" fill="none" stroke="#4d4d4f" stroke-linecap="round" stroke-linejoin="round" stroke-width="2.893"/>
    <path id="Path_1935" data-name="Path 1935" d="M34.625,66.444S55.218,64.534,72,66.059" fill="#fff4da"/>
    <path id="Path_1936" data-name="Path 1936" d="M34.625,66.444S55.218,64.534,72,66.059" fill="none" stroke="#4d4d4f" stroke-linecap="round" stroke-linejoin="round" stroke-width="2.893"/>
    <path id="Path_1937" data-name="Path 1937" d="M35.4,54.564s19.844-2.1,36.6,0" fill="#fff4da"/>
    <path id="Path_1938" data-name="Path 1938" d="M35.4,54.564s19.844-2.1,36.6,0" fill="none" stroke="#4d4d4f" stroke-linecap="round" stroke-linejoin="round" stroke-width="2.893"/>
    <path id="Path_1939" data-name="Path 1939" d="M35.4,43.125s19.844-2.1,36.6,0" fill="#fff4da"/>
    <path id="Path_1940" data-name="Path 1940" d="M35.4,43.125s19.844-2.1,36.6,0" fill="none" stroke="#4d4d4f" stroke-linecap="round" stroke-linejoin="round" stroke-width="2.893"/>
    <path id="Path_1941" data-name="Path 1941" d="M91.814,43.125a259.994,259.994,0,0,1,30.974,0" fill="#fff4da"/>
    <path id="Path_1942" data-name="Path 1942" d="M91.814,43.125a259.994,259.994,0,0,1,30.974,0" fill="none" stroke="#4d4d4f" stroke-linecap="round" stroke-linejoin="round" stroke-width="2.893"/>
    <path id="Path_1943" data-name="Path 1943" d="M91.814,54.795a260,260,0,0,1,30.974,0" fill="#fff4da"/>
    <path id="Path_1944" data-name="Path 1944" d="M91.814,54.795a260,260,0,0,1,30.974,0" fill="none" stroke="#4d4d4f" stroke-linecap="round" stroke-linejoin="round" stroke-width="2.893"/>
    <path id="Path_1945" data-name="Path 1945" d="M91.814,66.465a260,260,0,0,1,30.974,0" fill="#fff4da"/>
    <path id="Path_1946" data-name="Path 1946" d="M91.814,66.465a260,260,0,0,1,30.974,0" fill="none" stroke="#4d4d4f" stroke-linecap="round" stroke-linejoin="round" stroke-width="2.893"/>
    <path id="Path_1947" data-name="Path 1947" d="M91.814,78.135a259.994,259.994,0,0,1,30.974,0" fill="#fff4da"/>
    <path id="Path_1948" data-name="Path 1948" d="M91.814,78.135a259.994,259.994,0,0,1,30.974,0" fill="none" stroke="#4d4d4f" stroke-linecap="round" stroke-linejoin="round" stroke-width="2.893"/>
    <path id="Path_1949" data-name="Path 1949" d="M91.814,90.017a259.994,259.994,0,0,1,30.974,0" fill="#fff4da"/>
    <path id="Path_1950" data-name="Path 1950" d="M91.814,90.017a259.994,259.994,0,0,1,30.974,0" fill="none" stroke="#4d4d4f" stroke-linecap="round" stroke-linejoin="round" stroke-width="2.893"/>
    <path id="Path_1951" data-name="Path 1951" d="M123.264,98.21V1.516s12.688-2.059,12.979,16.211v84.725s-2.031-5.873-12.979-4.242" fill="#b0b2b5"/>
    <path id="Path_1952" data-name="Path 1952" d="M123.264,98.21V1.516s12.688-2.059,12.979,16.211v84.725S134.212,96.579,123.264,98.21Z" fill="none" stroke="#4d4d4f" stroke-linecap="round" stroke-linejoin="round" stroke-width="2.893"/>
    <path id="Path_1953" data-name="Path 1953" d="M157.9,72.431s1.181,1.372,4.731,2.745" fill="none" stroke="#77787b" stroke-linecap="round" stroke-linejoin="round" stroke-width="2.561"/>
    <path id="Path_1954" data-name="Path 1954" d="M157.913,63.36a26.759,26.759,0,0,1,4.031-4.217" fill="none" stroke="#77787b" stroke-linecap="round" stroke-linejoin="round" stroke-width="2.561"/>
    <path id="Path_1955" data-name="Path 1955" d="M158.912,67.771a31.449,31.449,0,0,1,5.482-.371" fill="none" stroke="#77787b" stroke-linecap="round" stroke-linejoin="round" stroke-width="2.561"/>
    <path id="Path_1956" data-name="Path 1956" d="M7.773,61.887s-1.181-1.372-4.731-2.745" fill="none" stroke="#77787b" stroke-linecap="round" stroke-linejoin="round" stroke-width="2.561"/>
    <path id="Path_1957" data-name="Path 1957" d="M7.762,70.958a26.758,26.758,0,0,1-4.031,4.217" fill="none" stroke="#77787b" stroke-linecap="round" stroke-linejoin="round" stroke-width="2.561"/>
    <path id="Path_1958" data-name="Path 1958" d="M6.762,66.547a31.45,31.45,0,0,1-5.482.371" fill="none" stroke="#77787b" stroke-linecap="round" stroke-linejoin="round" stroke-width="2.561"/>
  </g>
</svg>
